#!OML:ASF H:\LiuWeirdWalks\Patient Classification 1\Patient 1\Session 1\male.ASF
:FULLY-SPECIFIED
:DEGREES
288
root 0.46678 17.7726 -29.3491 3.43595 10.9538 1.53675
lowerback 5.36626 -2.14387 -1.83534
upperback 1.55617 -2.86958 4.76861
thorax -1.06297 -1.44458 6.15545
lowerneck -25.6785 -2.9665 -5.13078
upperneck 38.5238 -0.896767 -2.58216
head 19.1576 -1.51302 -0.557693
rclavicle 1.2921e-014 -2.54444e-014
rhumerus -37.5841 -73.0248 40.9334
rradius 20.4877
rwrist 17.9075
rhand -12.2786 2.53968
rfingers 7.12502
rthumb 13.7885 -26.9834
lclavicle 1.2921e-014 -2.54444e-014
lhumerus -26.5712 28.8599 -17.0357
lradius 21.0476
lwrist -19.4455
lhand -17.0994 6.50393
lfingers 7.12502
lthumb 9.13941 36.2859
rfemur -3.08981 1.56641 8.45954
rtibia 25.2685
rfoot -14.0561 -22.9935
rtoes -8.54475
lfemur -8.70574 2.82879 -23.1128
ltibia 28.0697
lfoot -14.9739 16.0288
ltoes -8.24731
289
root 0.475049 17.7693 -29.3385 3.41548 11.0224 1.5634
lowerback 5.37238 -2.12662 -1.83595
upperback 1.53933 -2.84591 4.77294
thorax -1.08638 -1.43183 6.15997
lowerneck -25.4583 -3.0938 -5.27905
upperneck 38.6659 -1.0884 -2.46568
head 19.1905 -1.59246 -0.520144
rclavicle 4.13472e-014 -3.18055e-015
rhumerus -38.1974 -73.6981 41.7359
rradius 20.5019
rwrist 17.983
rhand -12.4862 2.69377
rfingers 7.12502
rthumb 13.5884 -26.8428
lclavicle 4.13472e-014 -3.18055e-015
lhumerus -26.3028 28.955 -16.9556
lradius 21.1159
lwrist -19.2639
lhand -17.311 6.75647
lfingers 7.12502
lthumb 8.93521 36.5473
rfemur -3.00396 1.53333 8.41789
rtibia 25.2933
rfoot -14.0908 -23.0308
rtoes -8.58478
lfemur -8.65014 2.84274 -23.1543
ltibia 28.0987
lfoot -15.0391 15.9716
ltoes -8.26683
290
root 0.483637 17.7662 -29.3277 3.39149 11.0798 1.58671
lowerback 5.36459 -2.10743 -1.82547
upperback 1.51807 -2.81924 4.76419
thorax -1.10821 -1.4175 6.14354
lowerneck -25.2722 -3.19368 -5.35766
upperneck 38.8008 -1.2478 -2.39886
head 19.2267 -1.65652 -0.511425
rclavicle 1.68967e-014 -1.74931e-014
rhumerus -38.6766 -74.2643 42.3854
rradius 20.5216
rwrist 17.9998
rhand -12.7132 2.87345
rfingers 7.12502
rthumb 13.3696 -26.6776
lclavicle 1.68967e-014 -1.74931e-014
lhumerus -25.9885 28.9628 -16.8775
lradius 21.1732
lwrist -19.0962
lhand -17.517 6.99584
lfingers 7.12502
lthumb 8.73643 36.795
rfemur -2.92013 1.50394 8.37736
rtibia 25.3221
rfoot -14.1136 -23.0598
rtoes -8.65227
lfemur -8.58899 2.8505 -23.1947
ltibia 28.1272
lfoot -15.1028 15.9307
ltoes -8.28306
291
root 0.492245 17.7631 -29.317 3.35913 11.133 1.59225
lowerback 5.345 -2.09317 -1.79499
upperback 1.49296 -2.79803 4.75639
thorax -1.1277 -1.40588 6.1165
lowerneck -25.0685 -3.25153 -5.35362
upperneck 38.9058 -1.35771 -2.39305
head 19.2373 -1.69767 -0.533734
rclavicle 1.51076e-014 1.27222e-014
rhumerus -38.9088 -74.7258 42.7761
rradius 20.5492
rwrist 17.959
rhand -12.9508 3.06431
rfingers 7.12502
rthumb 13.1406 -26.5016
lclavicle 1.51076e-014 1.27222e-014
lhumerus -25.6589 28.899 -16.8154
lradius 21.2142
lwrist -18.966
lhand -17.6971 7.16284
lfingers 7.12502
lthumb 8.56268 36.9692
rfemur -2.83583 1.48506 8.35816
rtibia 25.353
rfoot -14.124 -23.0967
rtoes -8.73965
lfemur -8.52382 2.8442 -23.2166
ltibia 28.1577
lfoot -15.166 15.9035
ltoes -8.3004
292
root 0.500753 17.7604 -29.3068 3.32557 11.1909 1.58108
lowerback 5.33474 -2.05045 -1.77004
upperback 1.44729 -2.73883 4.72783
thorax -1.17891 -1.37409 6.06971
lowerneck -24.6477 -3.49997 -5.65278
upperneck 38.9591 -1.73877 -2.16246
head 19.1723 -1.855 -0.451908
rclavicle -9.74045e-015 1.90833e-014
rhumerus -39.0084 -74.889 42.995
rradius 20.6075
rwrist 17.738
rhand -13.185 3.22748
rfingers 7.12502
rthumb 12.9149 -26.3529
lclavicle -9.74045e-015 1.90833e-014
lhumerus -25.173 28.7079 -16.6796
lradius 21.2113
lwrist -19.1066
lhand -18.0177 7.34012
lfingers 7.12502
lthumb 8.25321 37.1589
rfemur -2.75775 1.46506 8.35972
rtibia 25.3857
rfoot -14.1276 -23.1393
rtoes -8.83139
lfemur -8.46506 2.8356 -23.2191
ltibia 28.1906
lfoot -15.2255 15.8739
ltoes -8.31328
293
root 0.509671 17.7576 -29.2965 3.29118 11.2529 1.57321
lowerback 5.32304 -2.01356 -1.76734
upperback 1.39258 -2.68815 4.7168
thorax -1.23559 -1.34638 6.05482
lowerneck -24.2012 -3.70885 -5.89779
upperneck 39.0007 -2.06175 -1.99351
head 19.0932 -1.99137 -0.394377
rclavicle -6.75868e-015 -2.38542e-014
rhumerus -38.8831 -75.0146 43.0184
rradius 20.6717
rwrist 17.4938
rhand -13.3918 3.3722
rfingers 7.12502
rthumb 12.7155 -26.2207
lclavicle -6.75868e-015 -2.38542e-014
lhumerus -24.6877 28.4128 -16.5266
lradius 21.2214
lwrist -19.1272
lhand -18.2398 7.61489
lfingers 7.12502
lthumb 8.03889 37.442
rfemur -2.6791 1.4273 8.35458
rtibia 25.4212
rfoot -14.1326 -23.171
rtoes -8.91501
lfemur -8.40576 2.82873 -23.2256
ltibia 28.2256
lfoot -15.2859 15.8414
ltoes -8.3322
294
root 0.519146 17.7547 -29.2861 3.25764 11.324 1.56339
lowerback 5.29266 -1.99233 -1.75674
upperback 1.34476 -2.65798 4.72265
thorax -1.27183 -1.3296 6.05326
lowerneck -23.837 -3.85516 -6.08725
upperneck 39.0117 -2.27016 -1.90964
head 19.0144 -2.08798 -0.361595
rclavicle -1.49089e-014 -5.88403e-014
rhumerus -38.6335 -75.1859 42.9439
rradius 20.7387
rwrist 17.2646
rhand -13.5765 3.49559
rfingers 7.12502
rthumb 12.5374 -26.1083
lclavicle -1.49089e-014 -5.88403e-014
lhumerus -24.2505 28.145 -16.4164
lradius 21.2166
lwrist -19.1662
lhand -18.4143 7.82269
lfingers 7.12502
lthumb 7.87046 37.6562
rfemur -2.60153 1.36077 8.347
rtibia 25.4617
rfoot -14.1419 -23.1859
rtoes -8.99044
lfemur -8.34783 2.82069 -23.2309
ltibia 28.2609
lfoot -15.3448 15.8046
ltoes -8.35158
295
root 0.529165 17.7518 -29.2758 3.22863 11.4151 1.56492
lowerback 5.26592 -1.96852 -1.749
upperback 1.33171 -2.62524 4.73775
thorax -1.27385 -1.31289 6.06215
lowerneck -23.5848 -3.99446 -6.25941
upperneck 39.0416 -2.46249 -1.83394
head 18.977 -2.17726 -0.334653
rclavicle -5.36719e-015 2.70347e-014
rhumerus -38.7202 -75.4732 43.239
rradius 20.8063
rwrist 17.0911
rhand -13.7174 3.5992
rfingers 7.12502
rthumb 12.4016 -26.0129
lclavicle -5.36719e-015 2.70347e-014
lhumerus -23.8067 28.0027 -16.3086
lradius 21.2139
lwrist -19.0746
lhand -18.472 7.95547
lfingers 7.12502
lthumb 7.81482 37.791
rfemur -2.52427 1.24932 8.32039
rtibia 25.5093
rfoot -14.1567 -23.1769
rtoes -9.05446
lfemur -8.29315 2.80754 -23.2489
ltibia 28.2958
lfoot -15.4024 15.7564
ltoes -8.37752
296
root 0.540216 17.7487 -29.2649 3.20399 11.5105 1.57247
lowerback 5.23315 -1.9691 -1.7229
upperback 1.32364 -2.62388 4.77324
thorax -1.26352 -1.31232 6.08339
lowerneck -23.4899 -4.00009 -6.22634
upperneck 39.1185 -2.45087 -1.93024
head 18.9955 -2.18241 -0.383643
rclavicle 1.11319e-014 -9.54166e-015
rhumerus -38.628 -75.8569 43.3906
rradius 20.8631
rwrist 16.953
rhand -13.833 3.68977
rfingers 7.12502
rthumb 12.2901 -25.9291
lclavicle 1.11319e-014 -9.54166e-015
lhumerus -23.453 27.9418 -16.2776
lradius 21.2171
lwrist -18.8629
lhand -18.4136 8.01984
lfingers 7.12502
lthumb 7.87116 37.8533
rfemur -2.4507 1.09803 8.2762
rtibia 25.5654
rfoot -14.179 -23.1309
rtoes -9.11781
lfemur -8.23878 2.78915 -23.2777
ltibia 28.3304
lfoot -15.4639 15.7116
ltoes -8.40615
297
root 0.551788 17.746 -29.2546 3.18429 11.616 1.5709
lowerback 5.20126 -1.99098 -1.66639
upperback 1.32188 -2.64915 4.82778
thorax -1.24451 -1.32544 6.10866
lowerneck -23.5073 -3.90229 -6.03253
upperneck 39.2199 -2.28687 -2.15
head 19.0483 -2.12252 -0.488256
rclavicle 2.90226e-014 2.70347e-014
rhumerus -38.3256 -76.2725 43.3477
rradius 20.9098
rwrist 16.8554
rhand -13.95 3.76276
rfingers 7.12502
rthumb 12.1773 -25.8628
lclavicle 2.90226e-014 2.70347e-014
lhumerus -23.1736 27.9851 -16.3257
lradius 21.2271
lwrist -18.556
lhand -18.2577 8.01403
lfingers 7.12502
lthumb 8.02157 37.8418
rfemur -2.38717 0.923578 8.23631
rtibia 25.6296
rfoot -14.2149 -23.0667
rtoes -9.16223
lfemur -8.1939 2.75764 -23.2996
ltibia 28.3659
lfoot -15.5217 15.6699
ltoes -8.43579
